<svg width="24" height="24" viewBox="0 0 24 24" fill="none" xmlns="http://www.w3.org/2000/svg">
<rect width="24" height="24" fill="white"/>
<path fill-rule="evenodd" clip-rule="evenodd" d="M12 2C17.5228 2 22 6.47717 22 12C22 17.5228 17.5228 22 12 22C6.47717 22 2 17.5228 2 12C2 6.47717 6.47717 2 12 2ZM13 18H11V20H13V18ZM17 7.00002L10.5 10.5L7.00002 17L13.5 13.5L17 7.00002ZM12 11C12.5523 11 13 11.4477 13 12C13 12.5523 12.5523 13 12 13C11.4477 13 11 12.5523 11 12C11 11.4477 11.4477 11 12 11ZM20 11H18V13H20V11ZM5.99998 11H4.00002V13H5.99998V11ZM13 4.00002H11V5.99998H13V4.00002Z" fill="#333333"/>
</svg>
