<svg width="32" height="32" viewBox="0 0 32 32" fill="none" xmlns="http://www.w3.org/2000/svg">
<path d="M3.42857 0C1.53571 0 0 1.53571 0 3.42857V28.5714C0 30.4643 1.53571 32 3.42857 32H28.5714C30.4643 32 32 30.4643 32 28.5714V3.42857C32 1.53571 30.4643 0 28.5714 0H3.42857ZM10.4914 9.51671C11.894 9.51671 13.1401 10.0016 14.0578 10.7289C14.9064 11.4041 15.3038 12.0794 15.6505 12.6856L13.2274 13.8962C13.0541 13.4987 12.8455 13.0829 12.3099 12.6332C11.7207 12.1652 11.1329 12.0272 10.6296 12.0272C8.65629 12.0272 7.61743 13.8624 7.61743 15.9049C7.61743 18.5886 8.98607 19.9206 10.6296 19.9206C12.2224 19.9206 12.8637 18.8127 13.2781 18.1038L15.6857 19.3329C15.2346 20.0419 14.8019 20.7354 13.8321 21.4092C13.3134 21.7728 12.1195 22.4833 10.4224 22.4833C7.18471 22.4833 4.57143 20.1293 4.57143 15.9907C4.57143 12.3739 7.02964 9.51671 10.4914 9.51671ZM15.8831 9.89721H19.1377L21.665 18.5886L24.1739 9.89729H27.4286L23.1872 22.1196H20.0721L15.8831 9.89721Z" fill="#406EB4"/>
</svg>
