<svg width="32" height="26" viewBox="0 0 32 26" fill="none" xmlns="http://www.w3.org/2000/svg">
<path d="M28.8 0H3.2C1.44 0 0.016 1.4625 0.016 3.25L0 22.75C0 24.5375 1.44 26 3.2 26H28.8C30.56 26 32 24.5375 32 22.75V3.25C32 1.4625 30.56 0 28.8 0ZM28.16 6.90625L16.848 14.0887C16.336 14.4137 15.664 14.4137 15.152 14.0887L3.84 6.90625C3.67956 6.81478 3.53907 6.6912 3.42702 6.54299C3.31497 6.39478 3.2337 6.22501 3.18812 6.04398C3.14254 5.86294 3.1336 5.67439 3.16185 5.48975C3.1901 5.3051 3.25494 5.1282 3.35245 4.96974C3.44996 4.81128 3.57812 4.67457 3.72916 4.56787C3.8802 4.46117 4.05099 4.38671 4.23119 4.34899C4.41139 4.31126 4.59725 4.31107 4.77753 4.34842C4.9578 4.38576 5.12874 4.45987 5.28 4.56625L16 11.375L26.72 4.56625C26.8713 4.45987 27.0422 4.38576 27.2225 4.34842C27.4027 4.31107 27.5886 4.31126 27.7688 4.34899C27.949 4.38671 28.1198 4.46117 28.2708 4.56787C28.4219 4.67457 28.55 4.81128 28.6476 4.96974C28.7451 5.1282 28.8099 5.3051 28.8382 5.48975C28.8664 5.67439 28.8575 5.86294 28.8119 6.04398C28.7663 6.22501 28.685 6.39478 28.573 6.54299C28.4609 6.6912 28.3204 6.81478 28.16 6.90625Z" fill="#406EB4"/>
</svg>
