<svg width="32" height="35" viewBox="0 0 32 35" fill="none" xmlns="http://www.w3.org/2000/svg">
<path d="M30.1563 3.88846V1.40638L32 0H12.048L0 10.2333H7.99011C7.97595 10.4221 7.96914 10.6114 7.96968 10.8007C7.96968 12.7006 8.64318 14.2722 9.99128 15.5276C11.3395 16.7851 12.9998 17.4096 14.9657 17.4096C15.4249 17.4096 15.8752 17.376 16.3125 17.3162C16.0413 17.9087 15.9045 18.4577 15.9045 18.9698C15.9045 19.8699 16.3242 20.8319 17.1607 21.8539C13.5009 22.0972 10.8119 22.7409 9.09774 23.7828C8.11539 24.3752 7.32539 25.123 6.72932 26.0187C6.13316 26.921 5.83587 27.8885 5.83587 28.9319C5.83587 29.8113 6.02822 30.6031 6.41599 31.3073C6.80367 32.0115 7.30944 32.5897 7.9376 33.0376C8.56426 33.4904 9.28728 33.8671 10.1035 34.1741C10.9182 34.4789 11.7272 34.6953 12.5345 34.8178C13.3278 34.9388 14.1295 34.9997 14.9324 35C16.1888 35 17.4466 34.842 18.7147 34.5272C19.9798 34.2096 21.1661 33.7395 22.2753 33.1151C23.3816 32.4949 24.2823 31.6489 24.9732 30.5887C25.6626 29.5241 26.0081 28.3279 26.0081 27.0034C26.0081 25.9993 25.7982 25.0858 25.3784 24.2563C24.9616 23.4293 24.4514 22.7485 23.8438 22.2196C23.2373 21.6898 22.6311 21.2029 22.0233 20.7642C21.4169 20.3226 20.9039 19.8755 20.4871 19.4141C20.0687 18.9541 19.8589 18.4977 19.8589 18.0483C19.8589 17.5998 20.0206 17.1668 20.3454 16.7481C20.6677 16.328 21.0613 15.9235 21.5217 15.5354C21.9822 15.148 22.4429 14.718 22.9019 14.2472C23.361 13.7781 23.7546 13.1692 24.0782 12.4235C24.4033 11.678 24.5635 10.8335 24.5635 9.89361C24.5635 8.66742 24.3259 7.66418 23.8595 6.85717C23.8041 6.76402 23.7459 6.69284 23.6846 6.58173L28.993 2.32777V3.8881C28.3034 3.97286 28.3751 4.37527 28.3751 4.85743V16.5849C28.3751 17.1279 28.8298 17.5724 29.3857 17.5724H29.7578C30.3136 17.5724 30.7683 17.128 30.7683 16.5849V4.85743C30.7683 4.37646 30.8409 3.97432 30.1563 3.88846ZM20.1416 24.1667C20.2479 24.235 20.4871 24.4201 20.8615 24.717C21.2393 25.0126 21.4956 25.2361 21.6326 25.3928C21.8335 25.6199 22.0317 25.8492 22.2274 26.0807C22.4898 26.3883 22.6675 26.6552 22.7608 26.8767C22.854 27.1026 22.9488 27.3744 23.045 27.6921C23.1369 28.0051 23.1835 28.3292 23.1835 28.6548C23.1835 30.2086 22.5712 31.36 21.35 32.1055C20.1257 32.8511 18.6665 33.2242 16.9715 33.2242C16.1145 33.2242 15.2735 33.1246 14.4471 32.9329C13.6222 32.74 12.8323 32.4466 12.0786 32.0578C11.3251 31.6697 10.7189 31.1278 10.2597 30.4357C9.79903 29.7393 9.56871 28.9395 9.56871 28.0431C9.56871 27.1025 9.82962 26.2849 10.3543 25.5907C10.8761 24.8958 11.5612 24.3702 12.4095 24.0126C13.2549 23.6529 14.1119 23.398 14.9805 23.2471C15.8558 23.0914 16.7436 23.0135 17.6333 23.0142C18.0502 23.0142 18.3735 23.037 18.6039 23.0777C18.6463 23.0976 18.8867 23.2663 19.3254 23.5847C19.7642 23.9003 20.0367 24.0947 20.1416 24.1666V24.1667ZM19.8283 14.9993C19.1374 15.8069 18.174 16.2105 16.9409 16.2105C15.8346 16.2105 14.8609 15.7762 14.0244 14.906C13.1849 14.038 12.5858 13.0532 12.22 11.9501C11.8527 10.8464 11.669 9.76409 11.669 8.70096C11.6692 7.45287 12.0044 6.39023 12.6747 5.51305C13.3451 4.63349 14.3071 4.1928 15.5606 4.1928C16.6684 4.1928 17.6477 4.65199 18.4931 5.5743C19.3414 6.4935 19.9493 7.526 20.3137 8.67034C20.6796 9.81331 20.8615 10.9061 20.8615 11.9501C20.8615 13.1757 20.5162 14.1932 19.8284 14.9993H19.8283Z" fill="#406EB4"/>
</svg>
